<?xml version="1.0" encoding="utf-8"?>
<!-- Generator: Adobe Illustrator 24.0.1, SVG Export Plug-In . SVG Version: 6.00 Build 0)  -->
<svg version="1.1" id="Layer_1" xmlns="http://www.w3.org/2000/svg" xmlns:xlink="http://www.w3.org/1999/xlink" x="0px" y="0px"
	 viewBox="0 0 282.72 41.15" style="enable-background:new 0 0 282.72 41.15;" xml:space="preserve">
<path d="M78.24,15.58c-1.35-1.33-2.99-2.08-5.17-2.08c-2.18,0-3.85,0.75-5.2,2.08c-1.94,1.92-1.89,4.29-1.89,7.57
	c0,3.28-0.05,5.65,1.89,7.57c1.35,1.33,3.02,2.08,5.2,2.08c2.18,0,3.83-0.75,5.17-2.08c1.94-1.92,1.91-4.29,1.91-7.57
	C80.16,19.87,80.18,17.5,78.24,15.58 M75.82,28.89c-0.62,0.66-1.58,1.09-2.75,1.09c-1.17,0-2.16-0.43-2.78-1.09
	c-0.83-0.86-1.05-1.81-1.05-5.74c0-3.94,0.22-4.88,1.05-5.75c0.62-0.66,1.61-1.09,2.78-1.09c1.17,0,2.13,0.43,2.75,1.09
	c0.83,0.86,1.08,1.81,1.08,5.75C76.9,27.08,76.65,28.03,75.82,28.89"/>
<path d="M58.97,19.64c0,0.94-0.12,1.79-0.37,2.56c-0.24,0.77-0.61,1.43-1.09,1.98c-0.48,0.55-1.08,0.98-1.8,1.28
	c-0.72,0.3-1.54,0.45-2.47,0.45h-3.44v6.99h-3.09V13.39h6.53c0.93,0,1.76,0.15,2.47,0.45c0.72,0.3,1.32,0.73,1.8,1.27
	c0.48,0.54,0.84,1.2,1.09,1.97C58.85,17.85,58.97,18.7,58.97,19.64 M55.99,19.66c0-0.94-0.23-1.7-0.69-2.29
	c-0.46-0.59-1.18-0.88-2.18-0.88h-3.32v6.31h3.32c0.99,0,1.72-0.29,2.18-0.87C55.76,21.36,55.99,20.6,55.99,19.66"/>
<rect x="89.68" y="13.39" width="3.23" height="19.52"/>
<polygon points="114.04,32.91 107.01,19.5 107.01,32.91 103.78,32.91 103.78,13.39 107.23,13.39 114.18,26.6 114.18,13.39 
	117.26,13.39 117.26,32.91 "/>
<polygon points="236.16,32.91 229.13,19.5 229.13,32.91 225.9,32.91 225.9,13.39 229.35,13.39 236.3,26.6 236.3,13.39 239.38,13.39 
	239.38,32.91 "/>
<polygon points="132.39,16.69 132.39,32.91 129.15,32.91 129.15,16.69 124.46,16.69 124.46,13.39 137.03,13.39 137.03,16.69 "/>
<path d="M169.16,32.91l-1.05-3.75h-6.46l-1.05,3.75h-3.17l5.7-19.52h3.57l5.7,19.52H169.16z M164.88,17.74l-2.31,8.23h4.63
	L164.88,17.74z"/>
<polygon points="189.35,32.91 185.67,32.91 180.29,13.39 183.64,13.39 187.58,28.28 191.5,13.39 194.69,13.39 "/>
<polygon points="204.14,32.91 204.14,13.39 215.99,13.39 215.99,16.61 207.37,16.61 207.37,21.15 214.96,21.15 214.96,24.34 
	207.37,24.34 207.37,29.69 215.99,29.69 215.99,32.91 "/>
<polygon points="270.87,32.91 270.87,13.39 282.72,13.39 282.72,16.61 274.1,16.61 274.1,21.15 281.69,21.15 281.69,24.34 
	274.1,24.34 274.1,29.69 282.72,29.69 282.72,32.91 "/>
<g>
	<path d="M27.3,27.09c-0.56,1.2-1.12,2.32-1.69,3.35c-0.57,1.03-1.21,1.98-1.93,2.85c-0.71,0.87-1.5,1.64-2.35,2.31
		c-0.86,0.67-1.84,1.23-2.95,1.69c-1.57,0.64-3.16,0.92-4.77,0.83c-1.61-0.09-3.15-0.47-4.61-1.14c-1.47-0.67-2.76-1.58-3.87-2.74
		c-1.12-1.16-1.94-2.53-2.47-4.14c-0.38-1.13-0.59-2.24-0.63-3.32c-0.04-1.08,0.03-2.17,0.23-3.27c0.2-1.1,0.51-2.2,0.92-3.31
		c0.42-1.1,0.9-2.25,1.46-3.46c0.54-1.18,1.11-2.29,1.69-3.35c0.58-1.06,1.23-2.02,1.94-2.89c0.71-0.87,1.5-1.64,2.35-2.31
		c0.85-0.67,1.84-1.23,2.95-1.69c1.57-0.64,3.16-0.92,4.77-0.83c1.61,0.09,3.15,0.47,4.61,1.14c1.47,0.67,2.75,1.58,3.87,2.74
		c1.11,1.16,1.94,2.53,2.47,4.14c0.38,1.13,0.59,2.24,0.63,3.32c0.04,1.08-0.03,2.17-0.23,3.28c-0.2,1.1-0.51,2.22-0.94,3.35
		C28.33,24.76,27.84,25.91,27.3,27.09 M24,25.58c0.35-0.75,0.71-1.58,1.08-2.47c0.37-0.89,0.68-1.81,0.91-2.75
		c0.23-0.94,0.36-1.88,0.38-2.82c0.02-0.94-0.13-1.85-0.44-2.71c-0.36-1.04-0.94-1.97-1.75-2.8c-0.81-0.83-1.73-1.47-2.74-1.94
		c-1.02-0.47-2.11-0.73-3.27-0.81c-1.16-0.07-2.25,0.09-3.28,0.5c-0.87,0.33-1.66,0.8-2.36,1.43c-0.71,0.63-1.35,1.34-1.91,2.12
		c-0.56,0.79-1.04,1.57-1.51,2.48c-0.46,0.91-0.83,1.67-1.18,2.43C7.58,19,7.22,19.83,6.85,20.72c-0.37,0.89-0.68,1.8-0.9,2.73
		c-0.23,0.92-0.35,1.86-0.37,2.8c-0.02,0.94,0.13,1.85,0.45,2.71c0.36,1.04,0.94,1.97,1.75,2.8c0.81,0.83,1.73,1.47,2.74,1.94
		c1.02,0.47,2.11,0.73,3.27,0.81c1.16,0.07,2.25-0.09,3.28-0.5c0.87-0.33,1.65-0.8,2.36-1.43c0.71-0.63,1.34-1.33,1.9-2.1
		c0.56-0.77,1.05-1.59,1.5-2.46C23.25,27.15,23.65,26.34,24,25.58"/>
	<polygon points="4.24,18.27 0.46,15 5.39,15.66 	"/>
	<polygon points="26.85,27.91 31.85,28.41 28,25.29 	"/>
	<polygon points="24.34,7.62 25.9,0.56 21.69,6.51 	"/>
	<polygon points="11.13,37.59 7.65,41.15 8.56,36.31 	"/>
</g>
<path d="M258.1,25.69c0,1.22-0.26,2.17-0.78,2.81c-0.5,0.62-1.19,0.92-2.11,0.92c-0.92,0-1.6-0.3-2.1-0.92
	c-0.51-0.64-0.77-1.59-0.77-2.81V13.32h-3.25V25.6c0,1.51,0.24,2.82,0.7,3.91c0.48,1.12,1.19,1.98,2.11,2.57
	c0.92,0.59,2.03,0.88,3.3,0.88c1.28,0,2.4-0.3,3.32-0.88c0.93-0.59,1.64-1.46,2.12-2.57c0.46-1.09,0.7-2.4,0.7-3.91V13.32h-3.25
	V25.69z"/>
</svg>
